<?xml version="1.0" encoding="UTF-8"?>
<svg width="75px" height="20px" viewBox="0 0 75 20" version="1.1" xmlns="http://www.w3.org/2000/svg" xmlns:xlink="http://www.w3.org/1999/xlink">
    <!-- Generator: Sketch 49.3 (51167) - http://www.bohemiancoding.com/sketch -->
    <title>Group</title>
    <desc>Created with Sketch.</desc>
    <defs></defs>
    <g id="Page-1" stroke="none" stroke-width="1" fill="none" fill-rule="evenodd">
        <g id="iPhone-X-Copy-100" transform="translate(-683.000000, -65.000000)" fill="#FFFFFF">
            <g id="Group" transform="translate(683.000000, 65.000000)">
                <path d="M38.0434783,8.69565217 C38.0434783,9.29610645 37.5566783,9.7826087 36.9567135,9.7826087 C36.3563652,9.7826087 35.8695652,9.29610645 35.8695652,8.69565217 C35.8695652,8.09558158 36.3563652,7.60869565 36.9567135,7.60869565 C37.5566783,7.60869565 38.0434783,8.09558158 38.0434783,8.69565217" id="Fill-46"></path>
                <path d="M0,3.81955492 C0,1.54457317 1.81278535,0 3.95026331,0 C6.24861617,0 7.2634032,1.41075072 7.51109168,2.46074229 L5.90332372,2.94456194 C5.78462944,2.44015422 5.29906194,1.58574931 3.95026331,1.58574931 C2.92468589,1.58574931 1.76962379,2.2857437 1.76962379,3.81955492 C1.76962379,5.1891295 2.82757239,5.9817702 3.97184409,5.9817702 C5.29906194,5.9817702 5.827791,5.13719141 5.97836597,4.61219562 L7.60869565,5.05530704 C7.36002623,6.06412248 6.34572967,7.60869565 3.97184409,7.60869565 C1.76962379,7.60869565 0,6.09500459 0,3.81955492" id="Fill-47"></path>
                <path d="M14.6788394,6.00235827 C15.690392,6.00235827 16.7849895,5.32295195 16.7849895,3.79896685 C16.7849895,2.27544966 15.690392,1.58574931 14.6788394,1.58574931 C13.6569649,1.58574931 12.5623675,2.27544966 12.5623675,3.79896685 C12.5623675,5.32295195 13.6569649,6.00235827 14.6788394,6.00235827 M14.6788394,0 C16.7333796,0 18.4782609,1.49263509 18.4782609,3.80926089 C18.4782609,6.11559266 16.7333796,7.60869565 14.6788394,7.60869565 C12.6144465,7.60869565 10.8695652,6.11559266 10.8695652,3.80926089 C10.8695652,1.49263509 12.6144465,0 14.6788394,0" id="Fill-48"></path>
                <path d="M14.6788394,17.95888 C15.690392,17.95888 16.7849895,17.2794737 16.7849895,15.7554886 C16.7849895,14.2319714 15.690392,13.5422711 14.6788394,13.5422711 C13.6569649,13.5422711 12.5623675,14.2319714 12.5623675,15.7554886 C12.5623675,17.2794737 13.6569649,17.95888 14.6788394,17.95888 M14.6788394,11.9565217 C16.7333796,11.9565217 18.4782609,13.4491568 18.4782609,15.7657826 C18.4782609,18.0721144 16.7333796,19.5652174 14.6788394,19.5652174 C12.6144465,19.5652174 10.8695652,18.0721144 10.8695652,15.7657826 C10.8695652,13.4491568 12.6144465,11.9565217 14.6788394,11.9565217" id="Fill-49"></path>
                <polygon id="Fill-50" points="27.8793151 7.60869565 27.8793151 2.56484395 26.1265762 7.60869565 24.9134397 7.60869565 23.1607008 2.62922109 23.1607008 7.60869565 21.7391304 7.60869565 21.7391304 0 23.6908289 0 25.5387411 5.14041742 27.2919107 0 29.3478261 0 29.3478261 7.60869565"></polygon>
                <polygon id="Fill-51" points="6.14018466 19.5652174 6.14018466 14.5210424 4.38744574 19.5652174 3.17430924 19.5652174 1.42157032 14.5859114 1.42157032 19.5652174 0 19.5652174 0 11.9565217 1.95169848 11.9565217 3.79961069 17.0967809 5.55278027 11.9565217 7.60869565 11.9565217 7.60869565 19.5652174"></polygon>
                <polygon id="Fill-52" points="27.6586901 19.5652174 23.3266884 14.0765781 23.3266884 19.5652174 21.7391304 19.5652174 21.7391304 11.9565217 23.6810622 11.9565217 27.7496966 17.0696276 27.7496966 11.9565217 29.3478261 11.9565217 29.3478261 19.5652174"></polygon>
                <path d="M48.4740545,2.35780194 C48.4248304,2.01763087 48.1590205,1.44163282 47.3119194,1.44163282 C46.7310756,1.44163282 46.3569728,1.82204421 46.3569728,2.22397949 C46.3569728,2.57397668 46.5637138,2.83132756 47.046557,2.92397387 L47.9813665,3.1092665 C49.3108633,3.36661738 50,4.26219843 50,5.30236388 C50,6.44500178 49.0844327,7.60869565 47.4206598,7.60869565 C45.4906295,7.60869565 44.663218,6.3013532 44.5652174,5.27148178 L45.9927148,4.91119055 C46.0517837,5.58030283 46.4849553,6.16753074 47.4399019,6.16753074 C48.0507276,6.16753074 48.4248304,5.85824178 48.4248304,5.40530424 C48.4248304,5.03471897 48.1393309,4.76660615 47.6766248,4.67442775 L46.7212308,4.48913511 C45.5394061,4.25237231 44.8211825,3.42838159 44.8211825,2.34797582 C44.8211825,0.967639297 45.98287,0 47.3222117,0 C49.0647431,0 49.7243453,1.09163563 49.8720175,1.94604054 L48.4740545,2.35780194 Z" id="Fill-53"></path>
                <polygon id="Fill-54" points="60.6432232 1.62074972 60.6432232 7.60869565 58.9110341 7.60869565 58.9110341 1.62074972 56.5217391 1.62074972 56.5217391 0 63.0434783 0 63.0434783 1.62074972"></polygon>
                <polygon id="Fill-55" points="58.6956522 19.5652174 60.1206522 19.5652174 60.1206522 11.9565217 58.6956522 11.9565217"></polygon>
                <path d="M68.4782609,4.7541828 L68.4782609,0 L70.0063815,0 L70.0063815,4.61777668 C70.0063815,5.52015567 70.4700476,5.97182212 71.1956522,5.97182212 C71.9208172,5.97182212 72.3849229,5.52015567 72.3849229,4.61777668 L72.3849229,0 L73.9130435,0 L73.9130435,4.7541828 C73.9130435,6.62237442 72.7039955,7.60869565 71.1956522,7.60869565 C69.6868693,7.60869565 68.4782609,6.62237442 68.4782609,4.7541828" id="Fill-56"></path>
                <path d="M47.2250696,17.9664158 C48.3845544,17.9664158 49.3312896,17.2899247 49.3312896,15.7662347 C49.3312896,14.2425446 48.3845544,13.555811 47.2250696,13.555811 L46.2464219,13.555811 L46.2464219,17.9664158 L47.2250696,17.9664158 Z M44.5652174,19.5652174 L44.5652174,11.9565217 L47.2990484,11.9565217 C49.5657976,11.9565217 51.0869565,13.4163183 51.0869565,15.7662347 C51.0869565,18.1166388 49.5657976,19.5652174 47.2888945,19.5652174 L44.5652174,19.5652174 Z" id="Fill-57"></path>
                <path d="M71.2005786,17.95888 C72.2121311,17.95888 73.3067286,17.2794737 73.3067286,15.7554886 C73.3067286,14.2319714 72.2121311,13.5422711 71.2005786,13.5422711 C70.178704,13.5422711 69.0841066,14.2319714 69.0841066,15.7554886 C69.0841066,17.2794737 70.178704,17.95888 71.2005786,17.95888 M71.2005786,11.9565217 C73.2551188,11.9565217 75,13.4491568 75,15.7657826 C75,18.0721144 73.2551188,19.5652174 71.2005786,19.5652174 C69.1361856,19.5652174 67.3913043,18.0721144 67.3913043,15.7657826 C67.3913043,13.4491568 69.1361856,11.9565217 71.2005786,11.9565217" id="Fill-58"></path>
            </g>
        </g>
    </g>
</svg>